<?xml version="1.0" encoding="UTF-8"?>
<svg width="124px" height="124px" viewBox="0 0 124 124" version="1.1" xmlns="http://www.w3.org/2000/svg" xmlns:xlink="http://www.w3.org/1999/xlink">
    <!-- Generator: Sketch 46.2 (44496) - http://www.bohemiancoding.com/sketch -->
    <title>Group</title>
    <desc>Created with Sketch.</desc>
    <defs></defs>
    <g id="Page-1" stroke="none" stroke-width="1" fill="none" fill-rule="evenodd">
        <g id="Group">
            <circle id="Oval" fill="#FFFFFF" cx="62" cy="62" r="62"></circle>
            <path d="M24.71875,68.59375 C37.2031186,46.714894 19.4427862,76.1688837 38.5351562,51.2304688 C41.588193,47.2425984 49.2361117,34.2439339 46.296875,38.3164062 C39.5236656,47.7010565 33.3763617,57.5224325 27.015625,67.1914062 C26.2824572,68.3058967 24.2723888,71.7653269 25.0195312,70.6601562 L26.3242188,70.390625 C34.2534864,58.6616777 36.248407,40.0912244 49.3359375,34.6914062 C55.5492892,32.1278234 37.1985861,67.2774752 31.5859375,74.2539062 C31.2431345,74.6800049 31.1029167,72.3496088 31.5820312,72.6132812 L48.5078125,49.5429688 C63.6620035,57.8828168 0.402441749,140.295173 59.1445312,40.7460938 C61.2674244,37.148468 59.3272432,49.1656084 58.5078125,53.2617188 C55.2251225,69.6709896 50.8748646,85.8492704 46.8710937,102.097656 C45.6378911,107.102327 48.6733043,91.9206246 50.1953125,86.9960938 C52.6011435,79.2119116 56.1750624,71.8238679 58.6289062,64.0546875 C60.6015504,57.8090462 60.3260741,50.7607654 63.4570312,45.0078125 C71.3143366,30.5704679 41.0521499,160.863996 57.078125,84.8945312 C60.3208633,69.5226683 63.176002,54.0558718 67.0546875,38.8320312 C68.1355988,34.5894543 71.8641328,22.2550855 71.921875,26.6328125 C72.2364136,50.4795564 67.4834695,74.2162866 67.8359375,98.0625 C67.9577452,106.303399 75.0624933,44.2902521 79.453125,50.0039062 C85.5952391,57.9968144 79.1901042,70.1627604 79.0585938,80.2421875" id="Path-2" stroke="#BADA55"></path>
            <path d="M33,62.8869102 C45.4843686,41.0080542 27.7240362,70.4620439 46.8164062,45.523629 C49.869443,41.5357586 57.5173617,28.5370941 54.578125,32.6095665 C47.8049156,41.9942167 41.6576117,51.8155927 35.296875,61.4845665 C34.5637072,62.5990569 32.5536388,66.0584871 33.3007812,64.9533165 L34.6054688,64.6837852 C42.5347364,52.9548379 44.529657,34.3843846 57.6171875,28.9845665 C63.8305392,26.4209836 45.4798361,61.5706354 39.8671875,68.5470665 C39.5243845,68.9731651 39.3841667,66.642769 39.8632812,66.9064415 L56.7890625,43.836129 C71.9432535,52.175977 8.68369175,134.588333 67.4257812,35.039254 C69.5486744,31.4416282 67.6084932,43.4587686 66.7890625,47.554879 C63.5063725,63.9641498 59.1561146,80.1424306 55.1523437,96.3908165 C53.9191411,101.395487 56.9545543,86.2137848 58.4765625,81.289254 C60.8823935,73.5050719 64.4563124,66.1170281 66.9101562,58.3478477 C68.8828004,52.1022064 68.6073241,45.0539256 71.7382812,39.3009727 C79.5955866,24.8636281 49.3333999,155.157156 65.359375,79.1876915 C68.6021133,63.8158285 71.457252,48.349032 75.3359375,33.1251915 C76.4168488,28.8826146 80.1453828,16.5482457 80.203125,20.9259727 C80.5176636,44.7727166 75.7647195,68.5094468 76.1171875,92.3556602 C76.2389952,100.596559 83.3437433,38.5834123 87.734375,44.2970665 C93.8764891,52.2899746 87.4713542,64.4559206 87.3398438,74.5353477" id="Path-2" stroke="#BADA55"></path>
            <path d="M32.3034057,68.8869102 C44.7877744,47.0080542 27.0274419,76.4620439 46.119812,51.523629 C49.1728487,47.5357586 56.8207674,34.5370941 53.8815307,38.6095665 C47.1083214,47.9942167 40.9610175,57.8155927 34.6002807,67.4845665 C33.8671129,68.5990569 31.8570445,72.0584871 32.604187,70.9533165 L33.9088745,70.6837852 C41.8381422,58.9548379 43.8330627,40.3843846 56.9205932,34.9845665 C63.133945,32.4209836 44.7832419,67.5706354 39.1705932,74.5470665 C38.8277902,74.9731651 38.6875724,72.642769 39.166687,72.9064415 L56.0924682,49.836129 C71.2466592,58.175977 7.98709748,140.588333 66.729187,41.039254 C68.8520801,37.4416282 66.9118989,49.4587686 66.0924682,53.554879 C62.8097782,69.9641498 58.4595203,86.1424306 54.4557495,102.390816 C53.2225468,107.395487 56.25796,92.2137848 57.7799682,87.289254 C60.1857992,79.5050719 63.7597181,72.1170281 66.213562,64.3478477 C68.1862061,58.1022064 67.9107298,51.0539256 71.041687,45.3009727 C78.8989923,30.8636281 48.6368057,161.157156 64.6627807,85.1876915 C67.905519,69.8158285 70.7606577,54.349032 74.6393432,39.1251915 C75.7202545,34.8826146 79.4487885,22.5482457 79.5065307,26.9259727 C79.8210693,50.7727166 75.0681252,74.5094468 75.4205932,98.3556602 C75.542401,106.596559 82.6471491,44.5834123 87.0377807,50.2970665 C93.1798948,58.2899746 86.7747599,70.4559206 86.6432495,80.5353477" id="Path-2" stroke="#BADA55"></path>
            <path d="M32,68.8869102 C44.4843686,47.0080542 26.7240362,76.4620439 45.8164062,51.523629 C48.869443,47.5357586 56.5173617,34.5370941 53.578125,38.6095665 C46.8049156,47.9942167 40.6576117,57.8155927 34.296875,67.4845665 C33.5637072,68.5990569 31.5536388,72.0584871 32.3007812,70.9533165 L33.6054688,70.6837852 C41.5347364,58.9548379 43.529657,40.3843846 56.6171875,34.9845665 C62.8305392,32.4209836 44.4798361,67.5706354 38.8671875,74.5470665 C38.5243845,74.9731651 38.3841667,72.642769 38.8632812,72.9064415 L55.7890625,49.836129 C70.9432535,58.175977 7.68369175,140.588333 66.4257812,41.039254 C68.5486744,37.4416282 66.6084932,49.4587686 65.7890625,53.554879 C62.5063725,69.9641498 58.1561146,86.1424306 54.1523437,102.390816 C52.9191411,107.395487 55.9545543,92.2137848 57.4765625,87.289254 C59.8823935,79.5050719 63.4563124,72.1170281 65.9101562,64.3478477 C67.8828004,58.1022064 67.6073241,51.0539256 70.7382812,45.3009727 C78.5955866,30.8636281 48.3333999,161.157156 64.359375,85.1876915 C67.6021133,69.8158285 70.457252,54.349032 74.3359375,39.1251915 C75.4168488,34.8826146 79.1453828,22.5482457 79.203125,26.9259727 C79.5176636,50.7727166 74.7647195,74.5094468 75.1171875,98.3556602 C75.2389952,106.596559 82.3437433,44.5834123 86.734375,50.2970665 C92.8764891,58.2899746 86.4713542,70.4559206 86.3398438,80.5353477" id="Path-2" stroke="#BADA55"></path>
            <text id="D" font-family="GothamRounded-Book, Gotham Rounded" font-size="72" font-weight="300" fill="#000000">
                <tspan x="33" y="89">D</tspan>
            </text>
        </g>
    </g>
</svg>